<svg xmlns="http://www.w3.org/2000/svg" viewBox="3870 1029 35 24">
  <defs>
    <style>
      .cls-1 {
        fill: #f24040;
      }

      .cls-2 {
        fill: #fff;
      }
    </style>
  </defs>
  <g id="Group_62" data-name="Group 62" transform="translate(3306 872)">
    <rect id="Rectangle_26" data-name="Rectangle 26" class="cls-1" width="35" height="24" rx="6" transform="translate(564 157)"/>
    <g id="logout" transform="translate(577 163)">
      <g id="Group_61" data-name="Group 61" transform="translate(0 0)">
        <path id="Path_37" data-name="Path 37" class="cls-2" d="M39.572,40.4a.459.459,0,0,0,.649,0l3.019-3.019a.3.3,0,0,0,.056-.067.039.039,0,0,0,.011-.022.244.244,0,0,1,.034-.056c0-.011,0-.022.011-.022.011-.022.011-.034.022-.056a.363.363,0,0,0,0-.179.085.085,0,0,0-.022-.056c0-.011,0-.022-.011-.022l-.034-.067a.011.011,0,0,0-.011-.011.3.3,0,0,0-.056-.067l-3.019-3.019a.459.459,0,1,0-.649.649l2.236,2.236h-7.95a.458.458,0,0,0,0,.917h7.95l-2.236,2.236A.432.432,0,0,0,39.572,40.4Z" transform="translate(-30.381 -30.559)"/>
        <path id="Path_38" data-name="Path 38" class="cls-2" d="M6.858,19.381H12.9a.453.453,0,0,0,.458-.458V14.417a.458.458,0,0,0-.917,0v4.048H7.317V7.317h5.121v4.048a.458.458,0,1,0,.917,0V6.858A.453.453,0,0,0,12.9,6.4H6.858a.453.453,0,0,0-.458.458V18.923A.468.468,0,0,0,6.858,19.381Z" transform="translate(-6.4 -6.4)"/>
      </g>
    </g>
  </g>
</svg>
