<svg xmlns="http://www.w3.org/2000/svg" viewBox="0 0 1245.21 189.07"><defs><style>.cls-1{fill:#299eff;}.cls-2{fill:none;stroke:#299eff;stroke-miterlimit:10;stroke-width:14px;}</style></defs><title>logo 2</title><g id="Слой_2" data-name="Слой 2"><g id="Слой_1-2" data-name="Слой 1"><rect class="cls-1" x="100.96" y="102.2" width="19.25" height="86.87" rx="9.63" ry="9.63"/><rect class="cls-1" y="50.41" width="19.25" height="86.87" rx="9.63" ry="9.63"/><rect class="cls-1" x="201.58" y="50.41" width="19.25" height="86.87" rx="9.63" ry="9.63"/><circle class="cls-2" cx="110.42" cy="59.14" r="21.63"/><rect class="cls-1" x="50.62" y="-31.02" width="19.25" height="131.5" rx="9.63" ry="9.63" transform="translate(64.35 -34.69) rotate(63.43)"/><rect class="cls-1" x="150.99" y="-31.02" width="19.25" height="131.5" rx="9.63" ry="9.63" transform="translate(263.53 -93.39) rotate(116.57)"/><rect class="cls-1" x="50.93" y="19.39" width="19.25" height="131.5" rx="9.63" ry="9.63" transform="translate(-42.68 101.21) rotate(-63.43)"/><rect class="cls-1" x="151.31" y="19.39" width="19.25" height="131.5" rx="9.63" ry="9.63" transform="translate(156.78 267.15) rotate(-116.57)"/><path class="cls-1" d="M393,43.78H363.24v97.87q0,8.46-3.76,12.55a12.68,12.68,0,0,1-9.75,4.09,12.83,12.83,0,0,1-9.88-4.14Q336,150,336,141.65V43.78H306.26q-7,0-10.38-3.08a10.42,10.42,0,0,1-3.4-8.13A10.32,10.32,0,0,1,296,24.3q3.54-3,10.24-3H393q7.08,0,10.52,3.13A10.51,10.51,0,0,1,407,32.57a10.33,10.33,0,0,1-3.49,8.13Q400,43.78,393,43.78Z"/><path class="cls-1" d="M497.51,140.73l-6.43-16.91H436.3l-6.43,17.28q-3.76,10.11-6.43,13.65t-8.73,3.54a12.81,12.81,0,0,1-9.1-3.77,11.51,11.51,0,0,1-3.95-8.55,18.89,18.89,0,0,1,.92-5.7c.61-2,1.62-4.68,3-8.18l34.46-87.48c1-2.52,2.16-5.53,3.54-9.06A46.06,46.06,0,0,1,448,26.78a17.82,17.82,0,0,1,6.16-5.65A18.86,18.86,0,0,1,463.6,19a19.06,19.06,0,0,1,9.51,2.16,18.27,18.27,0,0,1,6.16,5.56,38.85,38.85,0,0,1,4,7.3q1.61,3.91,4.09,10.43l35.2,86.94q4.13,9.93,4.13,14.43a12,12,0,0,1-3.9,8.59,12.88,12.88,0,0,1-9.42,3.91,12.29,12.29,0,0,1-5.52-1.15,11.33,11.33,0,0,1-3.86-3.13,28.54,28.54,0,0,1-3.35-6.06C499.39,145.22,498.37,142.82,497.51,140.73Zm-54-37.4h40.25l-20.31-55.6Z"/><path class="cls-1" d="M604.21,156H563q-8.91,0-12.72-4t-3.82-12.73V38q0-8.91,3.91-12.82T563,21.26h43.66a101.39,101.39,0,0,1,16.72,1.2,35.75,35.75,0,0,1,12.68,4.59,33.26,33.26,0,0,1,8.46,7.22,31.84,31.84,0,0,1,5.61,9.65,32.41,32.41,0,0,1,1.93,11.16q0,20.22-20.22,29.59,26.55,8.46,26.56,32.91a37,37,0,0,1-5.79,20.35A34.71,34.71,0,0,1,637,151.3a55.1,55.1,0,0,1-14.15,3.63A143.19,143.19,0,0,1,604.21,156ZM573.79,41.76V76.59h25q10.2,0,15.76-1.93a15.06,15.06,0,0,0,8.5-7.35,16.53,16.53,0,0,0,2.3-8.64q0-10.2-7.26-13.56t-22.15-3.35Zm28.39,54.4H573.79V135.5H603.1q27.66,0,27.66-20,0-10.2-7.16-14.79T602.18,96.16Z"/><path class="cls-1" d="M708.79,35.51v98.06h55.32q6.61,0,10.16,3.21a10.51,10.51,0,0,1,3.54,8.09,10.2,10.2,0,0,1-3.5,8q-3.49,3.08-10.2,3.08H698.22q-8.91,0-12.82-4t-3.91-12.78V35.51q0-8.28,3.73-12.41A12.51,12.51,0,0,1,695,19a13,13,0,0,1,10,4.09Q708.8,27.14,708.79,35.51Z"/><path class="cls-1" d="M884.5,42.31H823V75.39h56.61q6.25,0,9.33,2.81A9.53,9.53,0,0,1,892,85.59a9.86,9.86,0,0,1-3,7.49q-3,2.9-9.37,2.9H823V134.3h63.6q6.42,0,9.69,3a10.27,10.27,0,0,1,3.26,8,10.05,10.05,0,0,1-3.26,7.76q-3.27,3-9.69,3H812.45q-8.91,0-12.82-4t-3.9-12.78V38a22.76,22.76,0,0,1,1.74-9.6A10.84,10.84,0,0,1,802.94,23a23,23,0,0,1,9.51-1.7h72q6.53,0,9.7,2.9a9.8,9.8,0,0,1,3.17,7.58,9.89,9.89,0,0,1-3.17,7.67Q891,42.31,884.5,42.31Z"/><path class="cls-1" d="M936.15,158.29a14.29,14.29,0,0,1-9.83-3.68q-4.14-3.68-4.14-10.29a13.35,13.35,0,0,1,4-9.65,13.07,13.07,0,0,1,9.74-4,13.62,13.62,0,0,1,9.88,4,13.06,13.06,0,0,1,4.09,9.7q0,6.52-4.09,10.24A13.75,13.75,0,0,1,936.15,158.29Z"/><path class="cls-1" d="M1095,113.44a35.77,35.77,0,0,1-3.17,13.92,50.16,50.16,0,0,1-10,14.71,50.75,50.75,0,0,1-17.37,11.71q-10.56,4.51-24.63,4.51a86,86,0,0,1-19.39-2,54.22,54.22,0,0,1-15.85-6.29,53.56,53.56,0,0,1-13.1-11.26,67,67,0,0,1-9.09-14.2,73.58,73.58,0,0,1-5.66-16.77,91.78,91.78,0,0,1-1.88-18.93,84.12,84.12,0,0,1,4.73-29.13,62.16,62.16,0,0,1,13.56-22,59.08,59.08,0,0,1,20.68-13.93A67,67,0,0,1,1039.08,19q16.35,0,29.13,6.52t19.58,16.13q6.8,9.6,6.8,18.15a11.86,11.86,0,0,1-3.31,8.27,10.5,10.5,0,0,1-8,3.59q-5.23,0-7.86-2.49a34.35,34.35,0,0,1-5.83-8.54q-5.33-10-12.55-15t-17.78-5q-16.82,0-26.79,12.78t-10,36.3q0,15.72,4.41,26.15t12.5,15.57a34.5,34.5,0,0,0,18.93,5.15q11.76,0,19.9-5.84t12.27-17.14a28.94,28.94,0,0,1,4.32-8.68q2.57-3.36,8.27-3.36a11.57,11.57,0,0,1,8.36,3.41A11.29,11.29,0,0,1,1095,113.44Z"/><path class="cls-1" d="M1178.77,19q21,0,36,8.5a55.09,55.09,0,0,1,22.74,24.17q7.73,15.66,7.72,36.8a89.94,89.94,0,0,1-4.23,28.4A61.39,61.39,0,0,1,1228.3,139a55.32,55.32,0,0,1-20.77,14.33q-12.32,5-28.21,5a74.37,74.37,0,0,1-28.31-5.1,56.19,56.19,0,0,1-20.86-14.39,61.3,61.3,0,0,1-12.63-22.33,90.1,90.1,0,0,1-4.28-28.21,87.17,87.17,0,0,1,4.46-28.49,61.09,61.09,0,0,1,12.91-22.06,56,56,0,0,1,20.59-13.92A74,74,0,0,1,1178.77,19Zm38.78,69.29q0-14.79-4.78-25.64t-13.65-16.41a37.56,37.56,0,0,0-20.35-5.56,36.86,36.86,0,0,0-15.12,3.08,33.3,33.3,0,0,0-12,9,42.86,42.86,0,0,0-7.9,15,67.9,67.9,0,0,0-2.9,20.54,69.6,69.6,0,0,0,2.9,20.77,42.41,42.41,0,0,0,8.18,15.39,34.33,34.33,0,0,0,12.13,9.15,38.33,38.33,0,0,0,34.28-2.21q8.77-5.24,14-16.17T1217.55,88.26Z"/></g></g></svg>