<svg xmlns="http://www.w3.org/2000/svg" viewBox="0 0 952.73 139.32"><defs><style>.cls-1{fill:#299EFF;}</style></defs><title>logo 2</title><g id="Слой_2" data-name="Слой 2"><g id="Слой_1-2" data-name="Слой 1"><path class="cls-1" d="M100.54,24.81H70.76v97.88c0,5.63-1.25,9.82-3.76,12.54a12.65,12.65,0,0,1-9.75,4.09,12.82,12.82,0,0,1-9.87-4.13q-3.83-4.14-3.82-12.5V24.81H13.79q-7,0-10.39-3.08A10.42,10.42,0,0,1,0,13.6,10.32,10.32,0,0,1,3.54,5.33q3.54-3,10.25-3h86.75q7.08,0,10.52,3.12a10.53,10.53,0,0,1,3.45,8.18A10.33,10.33,0,0,1,111,21.73Q107.53,24.82,100.54,24.81Z"/><path class="cls-1" d="M205,121.77l-6.43-16.91H143.82l-6.43,17.28q-3.76,10.11-6.43,13.64t-8.73,3.54a12.81,12.81,0,0,1-9.1-3.77,11.51,11.51,0,0,1-3.95-8.54,18.84,18.84,0,0,1,.92-5.7q.91-2.94,3-8.18l34.46-87.49,3.54-9a46.17,46.17,0,0,1,4.41-8.78,17.91,17.91,0,0,1,6.16-5.65A18.86,18.86,0,0,1,171.12,0a19.06,19.06,0,0,1,9.51,2.16,18.27,18.27,0,0,1,6.16,5.56,38.94,38.94,0,0,1,4,7.31q1.6,3.9,4.09,10.43L230,112.39q4.13,9.93,4.13,14.43a12,12,0,0,1-3.9,8.6,12.87,12.87,0,0,1-9.42,3.9,12.16,12.16,0,0,1-5.52-1.15,11.18,11.18,0,0,1-3.86-3.12,28.66,28.66,0,0,1-3.35-6.07C206.91,126.26,205.89,123.85,205,121.77ZM151,84.36h40.26L170.93,28.77Z"/><path class="cls-1" d="M311.73,137H270.55q-8.91,0-12.72-4T254,120.3V19q0-8.91,3.91-12.82t12.63-3.9h43.66a102.6,102.6,0,0,1,16.72,1.19,35.69,35.69,0,0,1,12.69,4.6,33.34,33.34,0,0,1,8.45,7.21A32,32,0,0,1,357.68,25a32.5,32.5,0,0,1,1.93,11.17q0,20.22-20.22,29.59,26.55,8.46,26.56,32.9A37,37,0,0,1,360.16,119a34.73,34.73,0,0,1-15.63,13.38A55.93,55.93,0,0,1,330.38,136,145.13,145.13,0,0,1,311.73,137ZM281.31,22.79V57.62h25q10.2,0,15.76-1.93a15,15,0,0,0,8.51-7.35,16.56,16.56,0,0,0,2.29-8.64q0-10.2-7.26-13.55t-22.14-3.36ZM309.7,77.2H281.31v39.33h29.31q27.66,0,27.67-19.94,0-10.2-7.17-14.8T309.7,77.2Z"/><path class="cls-1" d="M416.31,16.54V114.6h55.32q6.62,0,10.16,3.22a10.45,10.45,0,0,1,3.54,8.08,10.2,10.2,0,0,1-3.5,8q-3.49,3.09-10.2,3.08H405.74q-8.91,0-12.82-4T389,120.3V16.54q0-8.26,3.73-12.4A12.52,12.52,0,0,1,402.52,0a13,13,0,0,1,10,4.09Q416.32,8.19,416.31,16.54Z"/><path class="cls-1" d="M592,23.34H530.54V56.43h56.61q6.26,0,9.33,2.8a9.55,9.55,0,0,1,3.08,7.4,9.9,9.9,0,0,1-3,7.49q-3,2.89-9.38,2.89H530.54v38.32h63.6c4.28,0,7.52,1,9.69,3a10.27,10.27,0,0,1,3.26,8,10.06,10.06,0,0,1-3.26,7.77c-2.17,2-5.41,3-9.69,3H520q-8.91,0-12.82-4t-3.9-12.77V19A22.76,22.76,0,0,1,505,9.42,10.86,10.86,0,0,1,510.46,4,22.87,22.87,0,0,1,520,2.3h72q6.53,0,9.7,2.89a9.8,9.8,0,0,1,3.17,7.58,9.91,9.91,0,0,1-3.17,7.68Q598.54,23.35,592,23.34Z"/><path class="cls-1" d="M643.67,139.32a14.29,14.29,0,0,1-9.83-3.68c-2.76-2.44-4.14-5.88-4.14-10.29a13.36,13.36,0,0,1,3.95-9.65,13.11,13.11,0,0,1,9.74-4,13.59,13.59,0,0,1,9.88,4,13,13,0,0,1,4.09,9.69q0,6.53-4.09,10.25A13.79,13.79,0,0,1,643.67,139.32Z"/><path class="cls-1" d="M802.47,94.47a35.85,35.85,0,0,1-3.17,13.93,50.06,50.06,0,0,1-10,14.7A50.77,50.77,0,0,1,772,134.82q-10.56,4.5-24.63,4.5a86,86,0,0,1-19.39-2,54.51,54.51,0,0,1-15.85-6.3A53.51,53.51,0,0,1,699,119.75a67,67,0,0,1-9.09-14.2,73.91,73.91,0,0,1-5.66-16.77,92,92,0,0,1-1.88-18.94,84.12,84.12,0,0,1,4.73-29.13,62.34,62.34,0,0,1,13.56-22A59.19,59.19,0,0,1,721.33,4.78,66.83,66.83,0,0,1,746.6,0Q763,0,775.73,6.53t19.58,16.12q6.8,9.62,6.8,18.15a11.87,11.87,0,0,1-3.31,8.28,10.53,10.53,0,0,1-8,3.58q-5.24,0-7.85-2.48a34.35,34.35,0,0,1-5.84-8.55q-5.33-10-12.54-15t-17.79-5Q730,21.69,720,34.46t-10,36.3q0,15.72,4.41,26.15t12.5,15.58a34.49,34.49,0,0,0,18.93,5.14q11.77,0,19.9-5.83T778,94.66A29,29,0,0,1,782.35,86q2.56-3.34,8.27-3.35A11.54,11.54,0,0,1,799,86,11.32,11.32,0,0,1,802.47,94.47Z"/><path class="cls-1" d="M886.29,0q21,0,36,8.5A55.14,55.14,0,0,1,945,32.67q7.72,15.67,7.72,36.81a89.92,89.92,0,0,1-4.23,28.39A61.24,61.24,0,0,1,935.82,120a55.45,55.45,0,0,1-20.77,14.34q-12.31,5-28.21,5a74.4,74.4,0,0,1-28.31-5.1,56.17,56.17,0,0,1-20.86-14.38A61.38,61.38,0,0,1,825,97.51a90.16,90.16,0,0,1-4.28-28.22,87.17,87.17,0,0,1,4.46-28.49,61,61,0,0,1,12.91-22A55.72,55.72,0,0,1,858.72,4.83,74,74,0,0,1,886.29,0Zm38.78,69.29q0-14.79-4.78-25.64t-13.65-16.4a37.45,37.45,0,0,0-20.35-5.56,36.86,36.86,0,0,0-15.12,3.08,33.18,33.18,0,0,0-11.95,9,42.81,42.81,0,0,0-7.9,15,68,68,0,0,0-2.9,20.54,69.55,69.55,0,0,0,2.9,20.77,42.54,42.54,0,0,0,8.18,15.4,34.3,34.3,0,0,0,12.13,9.14,38.33,38.33,0,0,0,34.28-2.21q8.77-5.23,14-16.17T925.07,69.29Z"/></g></g></svg>