<svg xmlns="http://www.w3.org/2000/svg" viewBox="689 1872 359 460">
  <defs>
    <style>
      .cls-1, .cls-5 {
        fill: none;
      }

      .cls-1 {
        stroke: #c4cad8;
        stroke-width: 4px;
      }

      .cls-2, .cls-3 {
        fill: #c4cad8;
      }

      .cls-2 {
        font-size: 20px;
        font-family: Roboto-Bold, Roboto;
        font-weight: 700;
      }

      .cls-4 {
        stroke: none;
      }
    </style>
  </defs>
  <g id="Group_248" data-name="Group 248" transform="translate(434 1730)">
    <g id="Rectangle_94" data-name="Rectangle 94" class="cls-1" transform="translate(255 142)">
      <rect class="cls-4" width="359" height="460" rx="8"/>
      <rect class="cls-5" x="2" y="2" width="355" height="456" rx="6"/>
    </g>
    <text id="Ds" class="cls-2" transform="translate(435 447)"><tspan x="-152.891" y="0">Вы не управляете организацией</tspan></text>
    <g id="collaboration" transform="translate(375.18 268.18)">
      <g id="Group_196" data-name="Group 196" transform="translate(47.856)">
        <g id="Group_195" data-name="Group 195">
          <path id="Path_79" data-name="Path 79" class="cls-3" d="M203.964,0a11.964,11.964,0,1,0,11.964,11.964A11.964,11.964,0,0,0,203.964,0Zm0,19.94a7.976,7.976,0,1,1,7.976-7.976A7.976,7.976,0,0,1,203.964,19.94Z" transform="translate(-192)"/>
        </g>
      </g>
      <g id="Group_198" data-name="Group 198" transform="translate(41.874 25.922)">
        <g id="Group_197" data-name="Group 197">
          <path id="Path_80" data-name="Path 80" class="cls-3" d="M193.922,104h-.471l-.421.209a15.9,15.9,0,0,1-14.169,0l-.421-.209h-.471a9.982,9.982,0,0,0-9.97,9.97v11.964a5.982,5.982,0,0,0,5.982,5.982H197.91a5.982,5.982,0,0,0,5.982-5.982V113.97A9.982,9.982,0,0,0,193.922,104Zm5.982,21.934a1.994,1.994,0,0,1-1.994,1.994H173.982a1.994,1.994,0,0,1-1.994-1.994V113.97A5.982,5.982,0,0,1,177.545,108a19.955,19.955,0,0,0,16.8,0,5.982,5.982,0,0,1,5.557,5.966Z" transform="translate(-168 -104)"/>
        </g>
      </g>
      <g id="Group_200" data-name="Group 200" transform="translate(89.729 65.802)">
        <g id="Group_199" data-name="Group 199">
          <path id="Path_81" data-name="Path 81" class="cls-3" d="M371.964,264a11.964,11.964,0,1,0,11.964,11.964A11.964,11.964,0,0,0,371.964,264Zm0,19.94a7.976,7.976,0,1,1,7.976-7.976A7.976,7.976,0,0,1,371.964,283.94Z" transform="translate(-360 -264)"/>
        </g>
      </g>
      <g id="Group_202" data-name="Group 202" transform="translate(83.747 91.723)">
        <g id="Group_201" data-name="Group 201">
          <path id="Path_82" data-name="Path 82" class="cls-3" d="M361.922,368h-.471l-.421.2a15.9,15.9,0,0,1-14.169,0l-.421-.2h-.471a9.982,9.982,0,0,0-9.97,9.97v11.964a5.982,5.982,0,0,0,5.982,5.982H365.91a5.982,5.982,0,0,0,5.982-5.982V377.97A9.982,9.982,0,0,0,361.922,368Zm5.982,21.934a1.994,1.994,0,0,1-1.994,1.994H341.982a1.994,1.994,0,0,1-1.994-1.994V377.97A5.982,5.982,0,0,1,345.545,372a19.955,19.955,0,0,0,16.8,0,5.982,5.982,0,0,1,5.557,5.966Z" transform="translate(-336 -368)"/>
        </g>
      </g>
      <g id="Group_204" data-name="Group 204" transform="translate(5.982 65.802)">
        <g id="Group_203" data-name="Group 203">
          <path id="Path_83" data-name="Path 83" class="cls-3" d="M35.964,264a11.964,11.964,0,1,0,11.964,11.964A11.964,11.964,0,0,0,35.964,264Zm0,19.94a7.976,7.976,0,1,1,7.976-7.976A7.976,7.976,0,0,1,35.964,283.94Z" transform="translate(-24 -264)"/>
        </g>
      </g>
      <g id="Group_206" data-name="Group 206" transform="translate(0 91.723)">
        <g id="Group_205" data-name="Group 205">
          <path id="Path_84" data-name="Path 84" class="cls-3" d="M25.922,368h-.471l-.421.2a15.9,15.9,0,0,1-14.169,0l-.421-.2H9.97A9.982,9.982,0,0,0,0,377.97v11.964a5.982,5.982,0,0,0,5.982,5.982H29.91a5.982,5.982,0,0,0,5.982-5.982V377.97A9.982,9.982,0,0,0,25.922,368ZM31.9,389.934a1.994,1.994,0,0,1-1.994,1.994H5.982a1.994,1.994,0,0,1-1.994-1.994V377.97A5.982,5.982,0,0,1,9.545,372a19.955,19.955,0,0,0,16.8,0A5.982,5.982,0,0,1,31.9,377.97Z" transform="translate(0 -368)"/>
        </g>
      </g>
      <g id="Group_208" data-name="Group 208" transform="translate(39.879 97.704)">
        <g id="Group_207" data-name="Group 207">
          <path id="Path_85" data-name="Path 85" class="cls-3" d="M199.721,395.555l0-.007A1.994,1.994,0,0,0,197.1,394.5h0a44.23,44.23,0,0,1-28.44,1.958l1.866-.548a1.995,1.995,0,0,0-1.121-3.828l-7.976,2.339c-.03,0-.052.034-.08.044a1.977,1.977,0,0,0-.514.285,1.746,1.746,0,0,0-.2.126,1.932,1.932,0,0,0-.489.678,2,2,0,0,0-.152.824,6.144,6.144,0,0,0,.2.8c.012.028,0,.06.022.088l3.988,7.631a2,2,0,0,0,3.537-1.846l-1.623-3.1a48,48,0,0,0,32.54-1.771A1.994,1.994,0,0,0,199.721,395.555Z" transform="translate(-159.998 -391.995)"/>
        </g>
      </g>
      <g id="Group_210" data-name="Group 210" transform="translate(75.771 15.608)">
        <g id="Group_209" data-name="Group 209">
          <path id="Path_86" data-name="Path 86" class="cls-3" d="M341.3,99.441a1.994,1.994,0,0,0-2.819,0l-2.822,2.821a47.783,47.783,0,0,0-28.885-39.481,1.994,1.994,0,1,0-1.563,3.669,43.8,43.8,0,0,1,26.374,35.24l-2.249-2.249a1.994,1.994,0,0,0-2.819,2.819l5.982,5.982a1.994,1.994,0,0,0,2.82,0l0,0,5.982-5.982A1.994,1.994,0,0,0,341.3,99.441Z" transform="translate(-303.998 -62.622)"/>
        </g>
      </g>
      <g id="Group_212" data-name="Group 212" transform="translate(11.964 11.997)">
        <g id="Group_211" data-name="Group 211">
          <path id="Path_87" data-name="Path 87" class="cls-3" d="M79.846,53.4a1.854,1.854,0,0,0-.052-.345c0-.018-.022-.03-.03-.05s0-.034,0-.05a1.913,1.913,0,0,0-.187-.275,2.013,2.013,0,0,0-.227-.329,1.872,1.872,0,0,0-.389-.265,1.754,1.754,0,0,0-.223-.162l-7.976-3.643a1.994,1.994,0,0,0-1.655,3.625l4.13,1.888A47.782,47.782,0,0,0,48,95.957a1.994,1.994,0,1,0,3.988,0A43.8,43.8,0,0,1,73.569,58.183L72.127,61.2a1.994,1.994,0,0,0,.931,2.658,1.963,1.963,0,0,0,.863.2,1.994,1.994,0,0,0,1.795-1.131L79.7,54.6a.091.091,0,0,1,.016-.062,1.918,1.918,0,0,0,.108-.423,2.064,2.064,0,0,0,.076-.329A1.989,1.989,0,0,0,79.846,53.4Z" transform="translate(-48 -48.134)"/>
        </g>
      </g>
    </g>
  </g>
</svg>
